# xmcd
#
# Track frame offsets: 
#        225
#        15341
#        27997
#        49229
#        63119
#        73683
#        82488
#        100102
#        112948
#        128840
#        135771
#        147573
#        163131
#        177407
#        188903
#        197220
#
# Disc length: 2925 seconds
#
# Revision: 0
# Processed by: cddbd v1.5PL3 Copyright (c) Steve Scherf et al.
# Submitted via: ExactAudioCopy v0.95a5
#
DISCID=e30b6a10
DTITLE=Mudcat - Kickin' Chicken
DYEAR=2003
DGENRE=Blues
TTITLE0=Kickin' Chicken
TTITLE1=Ain't Gonna Drink
TTITLE2=I Want to Love You
TTITLE3=Hush Hush
TTITLE4=In Love with You
TTITLE5=X-Mass Song
TTITLE6=Georgia Grind
TTITLE7=Truth=PI
TTITLE8=Fernando
TTITLE9=Chicken Man
TTITLE10=Country in the End
TTITLE11=Reefer Man
TTITLE12=Tears of Mercy
TTITLE13=Santa Maria
TTITLE14=San Marco
TTITLE15=This World is Not our Home
EXTD=
EXTT0=
EXTT1=
EXTT2=
EXTT3=
EXTT4=
EXTT5=
EXTT6=
EXTT7=
EXTT8=
EXTT9=
EXTT10=
EXTT11=
EXTT12=
EXTT13=
EXTT14=
EXTT15=
PLAYORDER=
